<svg height="36" viewBox="0 0 198 36" width="198" xmlns="http://www.w3.org/2000/svg"><g fill="#d30000"><path d="m64.5161 20.2636c3.927-1.176 6.79-4.806 6.792-9.116-.002-5.26-4.262-9.52-9.522-9.522h-16.403v32.646h5.442v-13.602h7.578l8.209 13.602h6.346zm-13.691-5.037v-8.162h10.961c2.252.004 4.077 1.828 4.08 4.083-.003 2.25-1.828 4.075-4.08 4.079zm-9.2977-10.1275c0 2.213-1.793 4.008-4.005 4.008s-4.006-1.795-4.006-4.008c0-2.212 1.794-4.005 4.006-4.005s4.005 1.793 4.005 4.005m-41.527 13c.001-9.392 7.611-17.003 17.004-17.005 9.392.002 17.001 7.613 17.003 17.005-.002 9.39-7.611 17.001-17.003 17.003-9.393-.002-17.003-7.613-17.004-17.003m8.827-8.179c-2.096 2.104-3.385 4.976-3.386 8.179.001 3.2 1.29 6.074 3.386 8.174 2.101 2.097 4.975 3.386 8.177 3.388 3.201-.002 6.073-1.291 8.175-3.388 2.097-2.1 3.386-4.974 3.386-8.174 0-3.203-1.289-6.075-3.386-8.179-2.102-2.094-4.974-3.382-8.175-3.384-3.202.002-6.076 1.29-8.177 3.384"/><path d="m187.27 1.625h-6.612l-8.374 12.12-8.375-12.12h-6.612l12.259 17.75v14.896h5.444v-14.883z"/><path d="m193.7081.8974c-2.224 0-4.028 1.803-4.028 4.026s1.804 4.026 4.028 4.026c2.221 0 4.026-1.803 4.026-4.026s-1.805-4.026-4.026-4.026m0 7.408c-1.867 0-3.382-1.515-3.382-3.382 0-1.868 1.515-3.383 3.382-3.383 1.864 0 3.38 1.515 3.38 3.383 0 1.867-1.516 3.382-3.38 3.382"/><path d="m195.5133 4.038c0-.661-.533-1.196-1.195-1.196h-2.266v4.103h.681v-1.709h1.149l.823 1.709h.761l-.842-1.748c.513-.135.889-.602.889-1.159zm-2.78-.512h1.585c.285 0 .511.229.511.512 0 .284-.226.514-.511.514h-1.585z"/><path d="m99.462 7.064v-5.439h-22.696v32.646h22.696v-5.442h-17.257v-8.161h16.426v-5.442h-16.426v-8.162z"/><path d="m116.303 34.271v-32.646h5.441v27.204h15.696v5.442z"/><path d="m141.875 34.271v-32.646h5.443v27.204h15.695v5.442z"/><path d="m105.172 34.271h5.44v-32.646h-5.44z"/></g></svg>