<svg xmlns="http://www.w3.org/2000/svg" viewBox="0 0 197.7 147.91">
<defs>
<style>.cls-2{fill:#49642e}</style>
</defs>
<path fill="#7e8033" d="m125.06 76.48-.12.13c-.9.82-2.54 1.47-5.24-.11a26 26 0 0 1-5.48-4.7 28.85 28.85 0 0 1-3.8-5.09c-1.47-2.66-1.49-4.68 0-6-16-8.47-39-4.4-56.37 11.36-21 19-25.82 48-10.75 64.58s44.31 14.64 65.32-4.4c17.62-16.02 23.83-38.98 16.44-55.77ZM46.25 134.4C32.54 119.28 36.92 93 56 75.62a54.44 54.44 0 0 1 28-13.75 72.4 72.4 0 0 0-19.58 12.77c-20.91 19-27.68 46-16.05 61.87a32.44 32.44 0 0 1-2.12-2.11Z"/>
<path d="M0 14c21 2 43.43 13 66.08 21.4 42 15.62 78.89.5 78.89.5-41.45-.9-80.29-17.74-80.29-17.74 85.1 25.47 105.9 6.62 105.9 6.62s-14.09 5.16-28.69 2.38C121.46 15.3 99.44 5.45 76 1.57 53.94-2.08 32.77.77 12 8.78A113.2 113.2 0 0 0 0 14Z" class="cls-2"/>
<ellipse cx="118.66" cy="69.65" class="cls-2" rx="1.92" ry="8.04" transform="rotate(-42.47 116.866 70.441)"/>
<path d="M119.25 69.9c21-29.13 57.8-33.22 74-33.53a4.56 4.56 0 0 0 3.83-6.89 4.57 4.57 0 0 0-4.3-2.22c-11.15.91-52 6.52-76.23 40.36Z" class="cls-2"/>
</svg>